<?xml version="1.0" encoding="UTF-8"?>
<svg xmlns="http://www.w3.org/2000/svg" xmlns:xlink="http://www.w3.org/1999/xlink" width="45pt" height="44.999999pt" viewBox="0 0 45 44.999999" version="1.2">
<defs>
<clipPath id="clip1">
  <path d="M 10.414062 11.277344 L 34.414062 11.277344 L 34.414062 33.777344 L 10.414062 33.777344 Z M 10.414062 11.277344 "/>
</clipPath>
</defs>
<g id="surface1">
<path style=" stroke:none;fill-rule:nonzero;fill:rgb(32.939148%,32.939148%,32.939148%);fill-opacity:1;" d="M 20.0625 27.527344 C 19.949219 27.566406 19.820312 27.605469 19.707031 27.640625 C 19.652344 27.660156 19.632812 27.71875 19.652344 27.753906 C 19.667969 27.792969 19.707031 27.832031 19.746094 27.832031 C 19.746094 27.832031 19.761719 27.832031 19.761719 27.832031 C 19.875 27.792969 20.007812 27.753906 20.121094 27.71875 C 20.175781 27.699219 20.195312 27.640625 20.175781 27.605469 C 20.175781 27.527344 20.121094 27.507812 20.0625 27.527344 Z M 20.0625 27.527344 "/>
<path style=" stroke:none;fill-rule:nonzero;fill:rgb(32.939148%,32.939148%,32.939148%);fill-opacity:1;" d="M 20.175781 20 C 20.230469 20 20.269531 19.960938 20.269531 19.90625 L 20.269531 19.8125 C 20.269531 19.71875 20.269531 19.621094 20.269531 19.527344 C 20.269531 19.472656 20.230469 19.433594 20.175781 19.433594 C 20.121094 19.433594 20.082031 19.472656 20.082031 19.527344 C 20.082031 19.621094 20.082031 19.71875 20.082031 19.832031 L 20.082031 19.925781 C 20.082031 19.945312 20.121094 20 20.175781 20 Z M 20.175781 20 "/>
<path style=" stroke:none;fill-rule:nonzero;fill:rgb(32.939148%,32.939148%,32.939148%);fill-opacity:1;" d="M 24.933594 17.691406 C 24.953125 17.730469 24.992188 17.730469 25.007812 17.730469 C 25.027344 17.730469 25.046875 17.730469 25.066406 17.710938 C 25.101562 17.691406 25.121094 17.636719 25.101562 17.578125 C 25.046875 17.464844 24.972656 17.351562 24.898438 17.257812 C 24.859375 17.21875 24.804688 17.203125 24.765625 17.238281 C 24.726562 17.277344 24.710938 17.332031 24.746094 17.371094 C 24.804688 17.484375 24.878906 17.597656 24.933594 17.691406 Z M 24.933594 17.691406 "/>
<path style=" stroke:none;fill-rule:nonzero;fill:rgb(32.939148%,32.939148%,32.939148%);fill-opacity:1;" d="M 25.328125 18.734375 C 25.328125 18.769531 25.382812 18.808594 25.421875 18.808594 C 25.421875 18.808594 25.441406 18.808594 25.441406 18.808594 C 25.496094 18.789062 25.515625 18.753906 25.515625 18.695312 C 25.496094 18.5625 25.457031 18.449219 25.421875 18.316406 C 25.402344 18.261719 25.347656 18.242188 25.308594 18.261719 C 25.253906 18.28125 25.234375 18.335938 25.253906 18.375 C 25.273438 18.488281 25.308594 18.601562 25.328125 18.734375 Z M 25.328125 18.734375 "/>
<path style=" stroke:none;fill-rule:nonzero;fill:rgb(32.939148%,32.939148%,32.939148%);fill-opacity:1;" d="M 25.402344 19.472656 L 25.402344 19.546875 C 25.402344 19.640625 25.402344 19.753906 25.382812 19.847656 C 25.382812 19.90625 25.421875 19.945312 25.476562 19.945312 C 25.535156 19.945312 25.570312 19.90625 25.570312 19.847656 C 25.570312 19.734375 25.589844 19.640625 25.589844 19.527344 L 25.589844 19.453125 C 25.589844 19.394531 25.550781 19.359375 25.496094 19.359375 C 25.441406 19.375 25.402344 19.414062 25.402344 19.472656 Z M 25.402344 19.472656 "/>
<path style=" stroke:none;fill-rule:nonzero;fill:rgb(32.939148%,32.939148%,32.939148%);fill-opacity:1;" d="M 20.34375 20.644531 C 20.324219 20.585938 20.289062 20.566406 20.230469 20.566406 C 20.175781 20.585938 20.15625 20.625 20.15625 20.679688 C 20.175781 20.8125 20.214844 20.945312 20.25 21.058594 C 20.269531 21.097656 20.308594 21.136719 20.34375 21.136719 C 20.34375 21.136719 20.363281 21.136719 20.363281 21.136719 C 20.417969 21.117188 20.4375 21.058594 20.417969 21.023438 C 20.398438 20.871094 20.363281 20.757812 20.34375 20.644531 Z M 20.34375 20.644531 "/>
<path style=" stroke:none;fill-rule:nonzero;fill:rgb(32.939148%,32.939148%,32.939148%);fill-opacity:1;" d="M 24.261719 16.804688 C 24.277344 16.824219 24.296875 16.84375 24.335938 16.84375 C 24.351562 16.84375 24.390625 16.84375 24.390625 16.824219 C 24.429688 16.785156 24.429688 16.730469 24.390625 16.691406 C 24.296875 16.597656 24.203125 16.5 24.109375 16.425781 C 24.074219 16.386719 24.015625 16.386719 23.980469 16.445312 C 23.941406 16.484375 23.941406 16.539062 23.996094 16.578125 C 24.089844 16.632812 24.167969 16.710938 24.261719 16.804688 Z M 24.261719 16.804688 "/>
<path style=" stroke:none;fill-rule:nonzero;fill:rgb(32.939148%,32.939148%,32.939148%);fill-opacity:1;" d="M 20.25 18.847656 C 20.308594 18.847656 20.34375 18.808594 20.363281 18.769531 C 20.382812 18.640625 20.398438 18.527344 20.4375 18.410156 C 20.457031 18.355469 20.417969 18.316406 20.363281 18.296875 C 20.308594 18.28125 20.269531 18.316406 20.25 18.375 C 20.214844 18.507812 20.195312 18.621094 20.175781 18.753906 C 20.15625 18.789062 20.195312 18.847656 20.25 18.847656 Z M 20.25 18.847656 "/>
<path style=" stroke:none;fill-rule:nonzero;fill:rgb(32.939148%,32.939148%,32.939148%);fill-opacity:1;" d="M 21.113281 16.765625 C 21.132812 16.765625 21.167969 16.746094 21.1875 16.730469 C 21.261719 16.632812 21.335938 16.539062 21.429688 16.445312 C 21.46875 16.40625 21.46875 16.351562 21.429688 16.3125 C 21.394531 16.273438 21.335938 16.273438 21.300781 16.3125 C 21.207031 16.40625 21.132812 16.5 21.039062 16.617188 C 21 16.652344 21.019531 16.710938 21.054688 16.746094 C 21.074219 16.746094 21.09375 16.765625 21.113281 16.765625 Z M 21.113281 16.765625 "/>
<path style=" stroke:none;fill-rule:nonzero;fill:rgb(32.939148%,32.939148%,32.939148%);fill-opacity:1;" d="M 21.972656 16.027344 C 21.992188 16.027344 21.992188 16.027344 22.011719 16.027344 C 22.125 15.992188 22.238281 15.953125 22.347656 15.933594 C 22.40625 15.933594 22.441406 15.878906 22.421875 15.820312 C 22.421875 15.765625 22.367188 15.726562 22.3125 15.746094 C 22.179688 15.765625 22.050781 15.800781 21.917969 15.859375 C 21.863281 15.878906 21.84375 15.933594 21.863281 15.992188 C 21.898438 16.011719 21.9375 16.027344 21.972656 16.027344 Z M 21.972656 16.027344 "/>
<path style=" stroke:none;fill-rule:nonzero;fill:rgb(32.939148%,32.939148%,32.939148%);fill-opacity:1;" d="M 25.273438 21.058594 C 25.273438 21.058594 25.289062 21.058594 25.289062 21.058594 C 25.328125 21.058594 25.363281 21.039062 25.382812 20.984375 C 25.421875 20.851562 25.441406 20.738281 25.476562 20.605469 C 25.496094 20.550781 25.457031 20.511719 25.402344 20.492188 C 25.347656 20.472656 25.308594 20.511719 25.289062 20.566406 C 25.273438 20.679688 25.234375 20.8125 25.195312 20.925781 C 25.195312 21.003906 25.234375 21.058594 25.273438 21.058594 Z M 25.273438 21.058594 "/>
<path style=" stroke:none;fill-rule:nonzero;fill:rgb(32.939148%,32.939148%,32.939148%);fill-opacity:1;" d="M 20.644531 17.691406 C 20.679688 17.578125 20.738281 17.464844 20.792969 17.351562 C 20.8125 17.316406 20.792969 17.257812 20.757812 17.21875 C 20.71875 17.203125 20.664062 17.21875 20.625 17.257812 C 20.570312 17.371094 20.511719 17.484375 20.476562 17.617188 C 20.457031 17.675781 20.476562 17.710938 20.53125 17.730469 C 20.550781 17.730469 20.550781 17.730469 20.570312 17.730469 C 20.605469 17.75 20.625 17.730469 20.644531 17.691406 Z M 20.644531 17.691406 "/>
<path style=" stroke:none;fill-rule:nonzero;fill:rgb(32.939148%,32.939148%,32.939148%);fill-opacity:1;" d="M 24.691406 22.667969 C 24.632812 22.648438 24.597656 22.667969 24.558594 22.707031 C 24.503906 22.820312 24.445312 22.933594 24.410156 23.046875 C 24.390625 23.082031 24.410156 23.140625 24.445312 23.179688 C 24.464844 23.179688 24.464844 23.179688 24.484375 23.179688 C 24.523438 23.179688 24.558594 23.160156 24.578125 23.121094 C 24.632812 23.007812 24.691406 22.894531 24.746094 22.78125 C 24.765625 22.742188 24.746094 22.707031 24.691406 22.667969 Z M 24.691406 22.667969 "/>
<path style=" stroke:none;fill-rule:nonzero;fill:rgb(32.939148%,32.939148%,32.939148%);fill-opacity:1;" d="M 24.597656 24.40625 C 24.464844 24.371094 24.351562 24.351562 24.242188 24.3125 C 24.183594 24.292969 24.148438 24.332031 24.128906 24.371094 C 24.109375 24.425781 24.148438 24.464844 24.183594 24.484375 C 24.296875 24.519531 24.429688 24.558594 24.558594 24.597656 C 24.558594 24.597656 24.578125 24.597656 24.578125 24.597656 C 24.617188 24.597656 24.652344 24.558594 24.671875 24.519531 C 24.671875 24.464844 24.632812 24.40625 24.597656 24.40625 Z M 24.597656 24.40625 "/>
<path style=" stroke:none;fill-rule:nonzero;fill:rgb(32.939148%,32.939148%,32.939148%);fill-opacity:1;" d="M 23.492188 24.710938 C 23.417969 24.804688 23.339844 24.917969 23.265625 25.011719 C 23.230469 25.050781 23.25 25.105469 23.285156 25.144531 C 23.304688 25.164062 23.324219 25.164062 23.339844 25.164062 C 23.359375 25.164062 23.398438 25.144531 23.417969 25.125 C 23.492188 25.03125 23.566406 24.917969 23.640625 24.824219 C 23.679688 24.785156 23.660156 24.730469 23.621094 24.691406 C 23.566406 24.652344 23.511719 24.671875 23.492188 24.710938 Z M 23.492188 24.710938 "/>
<path style=" stroke:none;fill-rule:nonzero;fill:rgb(32.939148%,32.939148%,32.939148%);fill-opacity:1;" d="M 24.203125 23.707031 C 24.167969 23.6875 24.109375 23.707031 24.074219 23.746094 C 24.015625 23.859375 23.960938 23.972656 23.886719 24.066406 C 23.867188 24.105469 23.867188 24.160156 23.921875 24.199219 C 23.941406 24.199219 23.960938 24.21875 23.980469 24.21875 C 24.015625 24.21875 24.035156 24.199219 24.054688 24.179688 C 24.109375 24.066406 24.183594 23.953125 24.242188 23.839844 C 24.261719 23.78125 24.242188 23.726562 24.203125 23.707031 Z M 24.203125 23.707031 "/>
<path style=" stroke:none;fill-rule:nonzero;fill:rgb(32.939148%,32.939148%,32.939148%);fill-opacity:1;" d="M 25.328125 24.5 C 25.289062 24.5 25.234375 24.539062 25.234375 24.597656 C 25.234375 24.652344 25.273438 24.691406 25.328125 24.691406 C 25.457031 24.710938 25.589844 24.710938 25.703125 24.710938 C 25.757812 24.710938 25.796875 24.671875 25.796875 24.617188 C 25.796875 24.558594 25.757812 24.519531 25.703125 24.519531 C 25.570312 24.519531 25.441406 24.519531 25.328125 24.5 Z M 25.328125 24.5 "/>
<path style=" stroke:none;fill-rule:nonzero;fill:rgb(32.939148%,32.939148%,32.939148%);fill-opacity:1;" d="M 25.101562 21.609375 C 25.046875 21.589844 25.007812 21.609375 24.992188 21.664062 C 24.953125 21.777344 24.898438 21.910156 24.859375 22.023438 C 24.839844 22.082031 24.859375 22.117188 24.914062 22.136719 C 24.933594 22.136719 24.933594 22.136719 24.953125 22.136719 C 24.992188 22.136719 25.027344 22.117188 25.046875 22.082031 C 25.085938 21.96875 25.140625 21.835938 25.179688 21.722656 C 25.179688 21.683594 25.160156 21.628906 25.101562 21.609375 Z M 25.101562 21.609375 "/>
<path style=" stroke:none;fill-rule:nonzero;fill:rgb(32.939148%,32.939148%,32.939148%);fill-opacity:1;" d="M 23.511719 24.199219 C 23.546875 24.199219 23.585938 24.179688 23.605469 24.140625 C 23.621094 24.085938 23.605469 24.046875 23.546875 24.011719 C 23.433594 23.953125 23.324219 23.898438 23.210938 23.839844 C 23.171875 23.820312 23.117188 23.839844 23.078125 23.878906 C 23.0625 23.914062 23.078125 23.972656 23.117188 24.011719 C 23.230469 24.066406 23.339844 24.125 23.453125 24.179688 C 23.472656 24.199219 23.492188 24.199219 23.511719 24.199219 Z M 23.511719 24.199219 "/>
<path style=" stroke:none;fill-rule:nonzero;fill:rgb(32.939148%,32.939148%,32.939148%);fill-opacity:1;" d="M 21.074219 27.035156 C 20.960938 27.09375 20.867188 27.167969 20.757812 27.226562 C 20.71875 27.246094 20.699219 27.300781 20.71875 27.359375 C 20.738281 27.394531 20.773438 27.414062 20.792969 27.414062 C 20.8125 27.414062 20.832031 27.414062 20.832031 27.394531 C 20.945312 27.339844 21.054688 27.261719 21.167969 27.207031 C 21.207031 27.1875 21.226562 27.128906 21.207031 27.074219 C 21.167969 27.015625 21.113281 27 21.074219 27.035156 Z M 21.074219 27.035156 "/>
<path style=" stroke:none;fill-rule:nonzero;fill:rgb(32.939148%,32.939148%,32.939148%);fill-opacity:1;" d="M 21.65625 22.820312 C 21.5625 22.742188 21.46875 22.648438 21.394531 22.554688 C 21.355469 22.515625 21.300781 22.515625 21.261719 22.554688 C 21.226562 22.589844 21.226562 22.648438 21.261719 22.6875 C 21.355469 22.78125 21.449219 22.855469 21.542969 22.949219 C 21.5625 22.96875 21.582031 22.96875 21.597656 22.96875 C 21.617188 22.96875 21.65625 22.949219 21.675781 22.933594 C 21.691406 22.914062 21.691406 22.855469 21.65625 22.820312 Z M 21.65625 22.820312 "/>
<path style=" stroke:none;fill-rule:nonzero;fill:rgb(32.939148%,32.939148%,32.939148%);fill-opacity:1;" d="M 20.832031 22.136719 C 20.851562 22.136719 20.867188 22.136719 20.886719 22.117188 C 20.925781 22.082031 20.945312 22.023438 20.90625 21.988281 C 20.832031 21.890625 20.773438 21.777344 20.71875 21.664062 C 20.699219 21.628906 20.644531 21.609375 20.585938 21.628906 C 20.550781 21.644531 20.53125 21.703125 20.550781 21.757812 C 20.605469 21.871094 20.679688 21.988281 20.757812 22.082031 C 20.773438 22.117188 20.8125 22.136719 20.832031 22.136719 Z M 20.832031 22.136719 "/>
<path style=" stroke:none;fill-rule:nonzero;fill:rgb(32.939148%,32.939148%,32.939148%);fill-opacity:1;" d="M 23.433594 16.140625 C 23.472656 16.140625 23.511719 16.125 23.511719 16.085938 C 23.527344 16.046875 23.511719 15.992188 23.472656 15.953125 C 23.359375 15.898438 23.230469 15.839844 23.117188 15.800781 C 23.0625 15.78125 23.023438 15.820312 23.003906 15.859375 C 22.984375 15.914062 23.023438 15.953125 23.0625 15.972656 C 23.171875 16.011719 23.285156 16.046875 23.398438 16.105469 C 23.398438 16.140625 23.417969 16.140625 23.433594 16.140625 Z M 23.433594 16.140625 "/>
<path style=" stroke:none;fill-rule:nonzero;fill:rgb(32.939148%,32.939148%,32.939148%);fill-opacity:1;" d="M 21.972656 26.375 C 21.878906 26.449219 21.785156 26.527344 21.675781 26.601562 C 21.636719 26.640625 21.617188 26.695312 21.65625 26.734375 C 21.675781 26.753906 21.691406 26.769531 21.730469 26.769531 C 21.75 26.769531 21.769531 26.769531 21.785156 26.753906 C 21.878906 26.675781 21.992188 26.601562 22.085938 26.507812 C 22.125 26.46875 22.125 26.410156 22.105469 26.375 C 22.066406 26.335938 22.011719 26.335938 21.972656 26.375 Z M 21.972656 26.375 "/>
<path style=" stroke:none;fill-rule:nonzero;fill:rgb(32.939148%,32.939148%,32.939148%);fill-opacity:1;" d="M 22.78125 25.578125 C 22.703125 25.675781 22.609375 25.769531 22.515625 25.84375 C 22.480469 25.882812 22.480469 25.9375 22.515625 25.976562 C 22.535156 25.996094 22.554688 25.996094 22.59375 25.996094 C 22.609375 25.996094 22.648438 25.996094 22.667969 25.976562 C 22.761719 25.882812 22.835938 25.789062 22.929688 25.691406 C 22.96875 25.65625 22.96875 25.597656 22.929688 25.5625 C 22.875 25.542969 22.816406 25.542969 22.78125 25.578125 Z M 22.78125 25.578125 "/>
<path style=" stroke:none;fill-rule:nonzero;fill:rgb(32.939148%,32.939148%,32.939148%);fill-opacity:1;" d="M 22.59375 23.613281 C 22.609375 23.574219 22.609375 23.519531 22.554688 23.480469 C 22.441406 23.421875 22.347656 23.347656 22.238281 23.273438 C 22.199219 23.234375 22.144531 23.253906 22.105469 23.292969 C 22.066406 23.328125 22.085938 23.386719 22.125 23.421875 C 22.238281 23.5 22.328125 23.574219 22.441406 23.632812 C 22.460938 23.652344 22.480469 23.652344 22.5 23.652344 C 22.535156 23.667969 22.574219 23.652344 22.59375 23.613281 Z M 22.59375 23.613281 "/>
<path style=" stroke:none;fill-rule:nonzero;fill:rgb(32.939148%,32.939148%,32.939148%);fill-opacity:1;" d="M 15.285156 17.996094 C 15.285156 18.257812 15.195312 18.480469 15.011719 18.664062 C 14.828125 18.847656 14.609375 18.941406 14.347656 18.941406 C 14.089844 18.941406 13.871094 18.847656 13.6875 18.664062 C 13.503906 18.480469 13.410156 18.257812 13.410156 17.996094 C 13.410156 17.734375 13.503906 17.511719 13.6875 17.328125 C 13.871094 17.140625 14.089844 17.050781 14.347656 17.050781 C 14.609375 17.050781 14.828125 17.140625 15.011719 17.328125 C 15.195312 17.511719 15.285156 17.734375 15.285156 17.996094 Z M 15.285156 17.996094 "/>
<g clip-path="url(#clip1)" clip-rule="nonzero">
<path style=" stroke:none;fill-rule:nonzero;fill:rgb(32.939148%,32.939148%,32.939148%);fill-opacity:1;" d="M 32.464844 15.6875 L 34.394531 15.6875 L 34.394531 11.566406 C 34.394531 11.414062 34.300781 11.320312 34.191406 11.320312 C 34.152344 11.320312 34.113281 11.320312 34.058594 11.359375 L 26.582031 14.722656 C 26.488281 14.761719 26.375 14.78125 26.246094 14.78125 C 26.113281 14.78125 25.984375 14.761719 25.890625 14.707031 L 18.957031 11.414062 C 18.863281 11.375 18.734375 11.339844 18.601562 11.339844 C 18.488281 11.339844 18.359375 11.359375 18.265625 11.394531 L 10.734375 14.800781 C 10.5625 14.914062 10.414062 15.160156 10.414062 15.367188 L 10.414062 27.832031 L 12.101562 27.832031 C 12.15625 27.832031 12.195312 27.867188 12.195312 27.925781 C 12.195312 27.980469 12.15625 28.019531 12.101562 28.019531 L 10.414062 28.019531 L 10.414062 28.398438 L 12.101562 28.398438 C 12.15625 28.398438 12.195312 28.4375 12.195312 28.492188 C 12.195312 28.550781 12.15625 28.585938 12.101562 28.585938 L 10.414062 28.585938 L 10.414062 33.503906 C 10.414062 33.65625 10.488281 33.730469 10.601562 33.730469 C 10.640625 33.730469 10.695312 33.710938 10.75 33.695312 L 18.320312 29.269531 C 18.414062 29.210938 18.527344 29.191406 18.640625 29.191406 C 18.75 29.191406 18.882812 29.210938 18.976562 29.269531 L 25.964844 33.542969 C 26.039062 33.597656 26.132812 33.617188 26.246094 33.617188 C 26.285156 33.65625 26.320312 33.675781 26.375 33.675781 C 26.453125 33.675781 26.507812 33.636719 26.546875 33.5625 C 26.5625 33.5625 26.582031 33.542969 26.601562 33.542969 L 34.097656 29.171875 C 34.265625 29.058594 34.414062 28.8125 34.414062 28.605469 L 34.414062 16.445312 L 32.484375 16.445312 C 32.429688 16.445312 32.390625 16.40625 32.390625 16.351562 C 32.390625 16.292969 32.429688 16.257812 32.484375 16.257812 L 34.394531 16.257812 L 34.394531 15.878906 L 32.464844 15.878906 C 32.410156 15.878906 32.371094 15.839844 32.371094 15.78125 C 32.371094 15.746094 32.410156 15.6875 32.464844 15.6875 Z M 12.757812 28.585938 C 12.699219 28.585938 12.664062 28.550781 12.664062 28.492188 C 12.664062 28.4375 12.699219 28.398438 12.757812 28.398438 C 12.8125 28.398438 12.851562 28.4375 12.851562 28.492188 C 12.851562 28.550781 12.8125 28.585938 12.757812 28.585938 Z M 12.757812 28.019531 C 12.699219 28.019531 12.664062 27.980469 12.664062 27.925781 C 12.664062 27.867188 12.699219 27.832031 12.757812 27.832031 C 12.8125 27.832031 12.851562 27.867188 12.851562 27.925781 C 12.851562 27.980469 12.8125 28.019531 12.757812 28.019531 Z M 14.273438 22.722656 C 14.273438 22.667969 14.253906 22.589844 14.253906 22.535156 C 14.253906 22.476562 14.292969 22.441406 14.347656 22.441406 C 14.40625 22.441406 14.441406 22.476562 14.441406 22.535156 C 14.441406 22.589844 14.460938 22.667969 14.460938 22.722656 C 14.460938 22.78125 14.421875 22.820312 14.386719 22.820312 C 14.328125 22.800781 14.273438 22.761719 14.273438 22.722656 Z M 14.515625 23.933594 C 14.460938 23.933594 14.421875 23.898438 14.421875 23.859375 L 14.367188 23.480469 L 14.460938 23.460938 L 14.554688 23.460938 L 14.609375 23.820312 C 14.609375 23.878906 14.59375 23.914062 14.515625 23.933594 C 14.535156 23.933594 14.515625 23.933594 14.515625 23.933594 Z M 14.796875 25.050781 C 14.796875 25.050781 14.78125 25.050781 14.761719 25.050781 C 14.722656 25.050781 14.6875 25.03125 14.667969 24.976562 C 14.628906 24.859375 14.59375 24.730469 14.574219 24.597656 C 14.554688 24.539062 14.59375 24.5 14.648438 24.484375 C 14.703125 24.464844 14.742188 24.5 14.761719 24.558594 C 14.796875 24.691406 14.816406 24.804688 14.855469 24.917969 C 14.875 24.976562 14.835938 25.03125 14.796875 25.050781 Z M 15.25 26.089844 C 15.230469 26.089844 15.210938 26.109375 15.210938 26.109375 C 15.171875 26.109375 15.15625 26.089844 15.136719 26.050781 C 15.078125 25.9375 15.023438 25.824219 14.96875 25.710938 C 14.949219 25.65625 14.96875 25.617188 15.003906 25.578125 C 15.0625 25.5625 15.097656 25.578125 15.136719 25.636719 C 15.191406 25.75 15.25 25.863281 15.304688 25.976562 C 15.304688 26.015625 15.285156 26.070312 15.25 26.089844 Z M 15.941406 27 C 15.921875 27.015625 15.902344 27.015625 15.886719 27.015625 C 15.867188 27.015625 15.828125 27.015625 15.828125 27 C 15.734375 26.902344 15.640625 26.808594 15.566406 26.714844 C 15.527344 26.675781 15.546875 26.621094 15.585938 26.582031 C 15.621094 26.542969 15.679688 26.5625 15.714844 26.601562 C 15.792969 26.695312 15.886719 26.789062 15.960938 26.886719 C 15.980469 26.886719 15.980469 26.960938 15.941406 27 Z M 14.441406 21.550781 C 14.421875 21.570312 14.386719 21.589844 14.347656 21.589844 C 14.328125 21.589844 14.292969 21.589844 14.253906 21.53125 C 13.503906 20.644531 12.679688 19.660156 12.605469 19.566406 C 12.269531 19.167969 12.101562 18.675781 12.101562 18.167969 C 12.101562 16.917969 13.113281 15.914062 14.347656 15.914062 C 15.585938 15.914062 16.597656 16.917969 16.597656 18.167969 C 16.597656 18.675781 16.429688 19.167969 16.089844 19.566406 C 16.015625 19.679688 14.460938 21.53125 14.441406 21.550781 Z M 16.878906 27.621094 C 16.859375 27.660156 16.820312 27.679688 16.785156 27.679688 C 16.765625 27.679688 16.765625 27.679688 16.746094 27.679688 C 16.632812 27.621094 16.523438 27.566406 16.410156 27.488281 C 16.371094 27.453125 16.351562 27.394531 16.371094 27.359375 C 16.390625 27.320312 16.464844 27.300781 16.503906 27.320312 C 16.597656 27.375 16.710938 27.453125 16.820312 27.488281 C 16.878906 27.507812 16.898438 27.566406 16.878906 27.621094 Z M 17.871094 27.980469 C 17.722656 27.960938 17.609375 27.945312 17.476562 27.90625 C 17.421875 27.886719 17.402344 27.847656 17.402344 27.792969 C 17.402344 27.734375 17.457031 27.71875 17.515625 27.71875 C 17.628906 27.734375 17.757812 27.773438 17.871094 27.773438 C 17.925781 27.773438 17.964844 27.832031 17.945312 27.886719 C 17.964844 27.945312 17.925781 27.980469 17.871094 27.980469 Z M 26.191406 16.011719 C 26.171875 16.027344 26.152344 16.066406 26.152344 16.105469 C 26.152344 16.140625 26.171875 16.160156 26.171875 16.199219 C 26.171875 16.691406 26.152344 17.183594 26.152344 17.238281 L 26.152344 33.238281 C 26.132812 33.238281 26.132812 33.238281 26.113281 33.21875 L 19.144531 28.964844 C 19.050781 28.910156 18.957031 28.871094 18.84375 28.851562 L 18.84375 28 C 18.902344 28 18.957031 28 19.015625 27.980469 C 19.070312 27.980469 19.109375 27.925781 19.089844 27.867188 C 19.089844 27.8125 19.03125 27.773438 18.976562 27.792969 C 18.921875 27.792969 18.882812 27.792969 18.828125 27.8125 L 18.828125 11.773438 L 25.722656 15.046875 C 25.871094 15.121094 26.171875 15.140625 26.171875 15.140625 C 26.207031 15.253906 26.191406 15.613281 26.191406 16.011719 Z M 31.808594 15.6875 C 31.867188 15.6875 31.902344 15.726562 31.902344 15.78125 C 31.902344 15.839844 31.867188 15.878906 31.808594 15.878906 C 31.753906 15.878906 31.714844 15.839844 31.714844 15.78125 C 31.714844 15.746094 31.753906 15.6875 31.808594 15.6875 Z M 31.808594 16.257812 C 31.867188 16.257812 31.902344 16.292969 31.902344 16.351562 C 31.902344 16.40625 31.867188 16.445312 31.808594 16.445312 C 31.753906 16.445312 31.714844 16.40625 31.714844 16.351562 C 31.714844 16.3125 31.753906 16.257812 31.808594 16.257812 Z M 33.085938 24.445312 C 33.085938 25.089844 32.859375 25.730469 32.464844 26.242188 C 32.351562 26.375 30.441406 28.699219 30.441406 28.71875 C 30.40625 28.777344 30.347656 28.796875 30.292969 28.796875 C 30.238281 28.796875 30.179688 28.777344 30.144531 28.71875 L 30.125 28.699219 C 29.542969 28 28.214844 26.375 28.101562 26.242188 C 27.707031 25.730469 27.480469 25.105469 27.480469 24.445312 C 27.480469 22.875 28.738281 21.589844 30.292969 21.589844 C 31.847656 21.589844 33.085938 22.875 33.085938 24.445312 Z M 33.085938 24.445312 "/>
</g>
<path style=" stroke:none;fill-rule:nonzero;fill:rgb(32.939148%,32.939148%,32.939148%);fill-opacity:1;" d="M 31.398438 24.238281 C 31.398438 24.386719 31.371094 24.53125 31.3125 24.671875 C 31.253906 24.808594 31.175781 24.933594 31.070312 25.039062 C 30.964844 25.144531 30.839844 25.226562 30.703125 25.285156 C 30.566406 25.34375 30.421875 25.371094 30.273438 25.371094 C 30.125 25.371094 29.980469 25.34375 29.84375 25.285156 C 29.707031 25.226562 29.585938 25.144531 29.480469 25.039062 C 29.375 24.933594 29.292969 24.808594 29.234375 24.671875 C 29.179688 24.53125 29.148438 24.386719 29.148438 24.238281 C 29.148438 24.085938 29.179688 23.941406 29.234375 23.804688 C 29.292969 23.664062 29.375 23.542969 29.480469 23.433594 C 29.585938 23.328125 29.707031 23.246094 29.84375 23.1875 C 29.980469 23.132812 30.125 23.101562 30.273438 23.101562 C 30.421875 23.101562 30.566406 23.132812 30.703125 23.1875 C 30.839844 23.246094 30.964844 23.328125 31.070312 23.433594 C 31.175781 23.542969 31.253906 23.664062 31.3125 23.804688 C 31.371094 23.941406 31.398438 24.085938 31.398438 24.238281 Z M 31.398438 24.238281 "/>
<path style=" stroke:none;fill-rule:nonzero;fill:rgb(49.409485%,85.099792%,34.118652%);fill-opacity:1;" d="M 22.484375 41.519531 C 17.402344 41.519531 12.617188 39.542969 9.027344 35.941406 C 5.429688 32.351562 3.449219 27.566406 3.449219 22.484375 C 3.449219 17.402344 5.429688 12.617188 9.027344 9.027344 C 12.617188 5.429688 17.402344 3.449219 22.484375 3.449219 C 27.566406 3.449219 32.351562 5.429688 35.941406 9.027344 C 39.542969 12.625 41.519531 17.402344 41.519531 22.484375 C 41.519531 27.566406 39.542969 32.351562 35.941406 35.941406 C 32.351562 39.542969 27.566406 41.519531 22.484375 41.519531 Z M 22.484375 4.589844 C 17.707031 4.589844 13.210938 6.457031 9.832031 9.832031 C 6.457031 13.210938 4.589844 17.707031 4.589844 22.484375 C 4.589844 27.261719 6.457031 31.757812 9.832031 35.136719 C 13.210938 38.515625 17.707031 40.378906 22.484375 40.378906 C 27.261719 40.378906 31.757812 38.515625 35.136719 35.136719 C 38.515625 31.757812 40.378906 27.261719 40.378906 22.484375 C 40.378906 17.707031 38.515625 13.210938 35.136719 9.832031 C 31.757812 6.457031 27.261719 4.589844 22.484375 4.589844 Z M 22.484375 4.589844 "/>
</g>
</svg>
